<svg width="10" height="10" viewBox="0 0 10 10" fill="none" xmlns="http://www.w3.org/2000/svg">
<path d="M9.02437 4.94928C9.02437 7.44889 7.33503 9.51537 5.14043 9.85071C4.93523 9.88192 4.72529 9.89822 4.51219 9.89822C4.2662 9.89822 4.02464 9.87672 3.7894 9.8351C1.64097 9.45572 0 7.41248 0 4.94928C0 2.21594 2.02038 0 4.5125 0C7.00462 0 9.025 2.21594 9.025 4.94928H9.02437Z" fill="black"/>
<path d="M5.14042 3.97414V5.05229H6.35645L6.1639 6.50461H5.14042V9.85072C4.93522 9.88193 4.72528 9.89823 4.51218 9.89823C4.26619 9.89823 4.02463 9.87673 3.78939 9.83512V6.50461H2.66791V5.05229H3.78939V3.73313C3.78939 2.91472 4.39424 2.25098 5.14074 2.25098V2.25167C5.14295 2.25167 5.14485 2.25098 5.14706 2.25098H6.35676V3.50702H5.56632C5.3314 3.50702 5.14074 3.71614 5.14074 3.97379L5.14042 3.97414Z" fill="white"/>
</svg>
