<svg width="9" height="10" viewBox="0 0 9 10" fill="none" xmlns="http://www.w3.org/2000/svg">
<path d="M4.51025 0H4.48975C2.01013 0 0 2.2047 0 4.92433V4.94681C0 7.66644 2.01013 9.87114 4.48975 9.87114H4.51025C6.98987 9.87114 9 7.66644 9 4.94681V4.92433C9 2.2047 6.98987 0 4.51025 0Z" fill="black"/>
<path d="M5.89258 2.0083H3.10773C2.33836 2.0083 1.71246 2.69478 1.71246 3.53862V6.33295C1.71246 7.17679 2.33836 7.86327 3.10773 7.86327H5.89258C6.66194 7.86327 7.28784 7.17679 7.28784 6.33295V3.53862C7.28784 2.69478 6.66194 2.0083 5.89258 2.0083ZM2.20467 3.53862C2.20467 2.99254 2.60985 2.54815 3.10773 2.54815H5.89258C6.39046 2.54815 6.79564 2.99254 6.79564 3.53862V6.33295C6.79564 6.87903 6.39046 7.32342 5.89258 7.32342H3.10773C2.60985 7.32342 2.20467 6.87903 2.20467 6.33295V3.53862Z" fill="white"/>
<path d="M4.50013 6.35887C5.21558 6.35887 5.79796 5.72046 5.79796 4.93542C5.79796 4.15037 5.2159 3.51196 4.50013 3.51196C3.78437 3.51196 3.2023 4.15037 3.2023 4.93542C3.2023 5.72046 3.78437 6.35887 4.50013 6.35887ZM4.50013 4.05216C4.94441 4.05216 5.30576 4.44848 5.30576 4.93576C5.30576 5.42304 4.94441 5.81937 4.50013 5.81937C4.05586 5.81937 3.69451 5.42304 3.69451 4.93576C3.69451 4.44848 4.05586 4.05216 4.50013 4.05216Z" fill="white"/>
<path d="M5.9181 3.74167C6.11076 3.74167 6.26779 3.56979 6.26779 3.35814C6.26779 3.14649 6.11107 2.97461 5.9181 2.97461C5.72513 2.97461 5.56842 3.14649 5.56842 3.35814C5.56842 3.56979 5.72513 3.74167 5.9181 3.74167Z" fill="white"/>
</svg>
